<svg xmlns="http://www.w3.org/2000/svg" width="303.98" height="101.212"><radialGradient id="a" cx="30.7" cy="34.854" r="52.758" gradientTransform="scale(1.07535 .92993)" gradientUnits="userSpaceOnUse"><stop offset="0" stop-color="#ef4123"/><stop offset=".478" stop-color="#de3a24"/><stop offset="1" stop-color="#650a2e"/></radialGradient><g fill="none" fill-rule="evenodd"><g fill="#182958"><path d="M0 100.203h6.106V81.251c1.405.35 3.089.421 4.914.421 5.966 0 11.23-1.754 14.46-5.195 2.386-2.457 3.65-5.825 3.65-10.107 0-4.212-1.544-7.65-4.141-9.897-2.807-2.528-7.23-3.93-13.266-3.93-4.915 0-8.775.42-11.723.91zm6.106-42.327c1.054-.28 3.089-.49 5.756-.49 6.74 0 11.161 3.017 11.161 9.265 0 6.527-4.492 10.108-11.861 10.108-2.036 0-3.722-.14-5.056-.492zm26.814 42.327h6.107v-18.11c0-1.052.141-2.036.281-2.878.842-4.632 3.394-8.529 7.745-8.529.842 0 1.474-.049 2.106.091v-4.511a6.6 6.6 0 0 0-1.756-.211c-4.14 0-7.322 2.28-8.867 6.844h-.28l-.211-6.669h-5.406c.21 3.158.281 6.598.281 10.6zm20.25 0h6.178V66.23H53.17zm37.483-5.896c-1.755.772-4.072 1.684-7.582 1.684-6.737 0-11.79-4.843-11.79-12.704 0-7.09 4.21-12.846 12.001-12.846 3.37 0 5.686.772 7.16 1.614l1.405-4.772c-1.686-.843-4.915-1.755-8.565-1.755-11.09 0-18.25 7.581-18.25 18.039 0 10.388 6.67 17.338 16.916 17.338 4.564 0 8.142-1.123 9.757-1.965zm32.078-9.967c.07-.632.21-1.615.21-2.878 0-6.248-2.948-16.005-14.038-16.005-9.898 0-15.935 8.073-15.935 18.32 0 10.249 6.248 17.128 16.707 17.128 5.404 0 9.126-1.123 11.3-2.106l-1.052-4.422c-2.316.983-4.983 1.754-9.406 1.754-6.177 0-11.512-3.439-11.651-11.791zm-23.797-4.422c.492-4.283 3.23-10.038 9.478-10.038 6.948 0 8.632 6.107 8.563 10.038zm26.533 18.109c2.668 1.474 8.003 2.878 13.407 2.878 12.987 0 19.093-6.74 19.093-14.67 0-6.67-3.93-11.02-12.285-14.11-6.106-2.316-8.773-3.649-8.773-6.668 0-2.457 2.246-4.562 6.879-4.562s8.002 1.334 9.897 2.247l2.386-8.634c-2.807-1.264-6.738-2.386-12.073-2.386-11.16 0-17.899 6.177-17.899 14.248 0 6.88 5.125 11.23 12.985 13.969 5.687 2.036 7.932 3.72 7.932 6.668 0 3.088-2.596 5.124-7.51 5.124-4.562 0-8.985-1.475-11.863-2.948zm35.89 2.176h10.388V80.199c0-.843.071-1.825.421-2.668.632-1.754 2.247-3.86 4.985-3.86 3.368 0 4.912 2.948 4.912 7.299v19.233h10.389V80.128c0-.842.14-1.965.422-2.738.7-2.036 2.456-3.72 4.913-3.72 3.44 0 5.053 2.878 5.053 7.86v18.673h10.39V79.987c0-10.247-4.984-14.88-11.582-14.88-2.528 0-4.633.56-6.529 1.684-1.613.983-3.157 2.386-4.422 4.14h-.14c-1.474-3.577-4.983-5.824-9.405-5.824-5.897 0-8.915 3.228-10.389 5.404h-.21l-.492-4.632h-8.986c.142 3.019.282 6.668.282 10.95zm95.968 0h10.67V82.796c0-.843.07-1.686.211-2.386.702-3.301 3.37-6.003 7.3-6.003 1.194 0 1.458-.059 2.878-.018v-8.544c-.772-.142-1.263-.142-2.247-.142-3.299 0-7.51 1.51-9.265 6.494h-.281l-.35-6.318h-9.195c.14 2.948.28 6.247.28 11.3zm-26.862-35.145c4.811 0 8.42 1.91 10.47 4.882h.143v-4.219h10.753v24.383c0 .623.004 1.253.01 1.88l.013.94c.045 2.965.153 5.79.261 7.51h-9.127l-.424-4.811h-.142c-2.406 4.103-6.367 5.59-10.401 5.59-7.923 0-15.777-6.227-15.777-18.679-.071-10.613 5.942-17.476 14.221-17.476m61.886-9.006v9.827H300v7.862h-7.65v12.424c0 4.141.981 6.036 4.211 6.036 1.334 0 2.386-.14 3.158-.281l.07 8.072c-1.404.561-3.93.913-6.95.913-3.438 0-6.316-1.194-8-2.949-1.966-2.035-2.949-5.334-2.949-10.177V73.74h-.026v-7.862h.026v-7.44zm-57.782 17.284c-5.024 0-7.429 4.246-7.429 9.622 0 6.226 2.83 9.764 7.429 9.764 3.113 0 5.589-2.264 6.296-5.094a7.9 7.9 0 0 0 .213-1.91v-5.094c0-.708-.07-1.345-.213-1.982-.707-3.113-3.395-5.306-6.296-5.306M299.673 55.274h-.813v1.453h.813c.467 0 .787-.32.787-.726 0-.407-.32-.727-.787-.727m.787 4.062-.985-1.908h-.615v1.908h-.887v-4.812h1.81c.91 0 1.55.677 1.55 1.477 0 .677-.418 1.12-.947 1.304l1.071 2.031zm-.935-6.031c-1.994 0-3.57 1.6-3.57 3.63 0 2.032 1.576 3.633 3.57 3.633s3.556-1.6 3.556-3.632c0-2.03-1.563-3.631-3.556-3.631m0 8.087a4.455 4.455 0 0 1-4.456-4.456 4.455 4.455 0 0 1 4.456-4.456 4.455 4.455 0 1 1 0 8.912"/></g><path fill="url(#a)" d="M44.236 0c-.322.002-.735.284-1.191.866L33.013 13.65 22.982.866C22.525.284 22.112.002 21.79 0c-.44 0-.709.53-.68 1.542l.455 16.311L5.614 14.5c-1.717-.36-2.163.41-1 1.72l10.812 12.178-14.358 7.673c-1.547.826-1.396 1.704.34 1.962l16.07 2.377-6.07 15.102c-1.006 2.506 1.512 1.607 2.431.268 3.416-4.976 8.875-8.45 14.802-9.566-5.791-1.857-9.987-7.282-9.987-13.691 0-7.934 6.427-14.367 14.359-14.378 7.931.011 14.359 6.444 14.359 14.378 0 6.409-4.195 11.834-9.987 13.691 5.927 1.115 11.386 4.59 14.803 9.566.919 1.339 3.436 2.238 2.43-.268l-6.07-15.102 16.07-2.377c1.737-.258 1.887-1.136.34-1.962L50.6 28.398l10.812-12.177c1.163-1.31.717-2.081-1-1.72L44.46 17.852l.454-16.311C44.944.53 44.676 0 44.236 0" transform="translate(23.297)"/></g></svg>